<svg width="20" height="19" viewBox="0 0 20 19" fill="none" xmlns="http://www.w3.org/2000/svg">
<path d="M4.35236 2.86257C4.35209 3.39301 4.14112 3.90161 3.76586 4.27649C3.3906 4.65138 2.88179 4.86184 2.35136 4.86157C1.82092 4.86131 1.31232 4.65034 0.937435 4.27508C0.56255 3.89982 0.352091 3.39101 0.352356 2.86057C0.352621 2.33014 0.563589 1.82154 0.93885 1.44665C1.31411 1.07177 1.82292 0.861307 2.35336 0.861573C2.88379 0.861838 3.39239 1.07281 3.76728 1.44807C4.14216 1.82333 4.35262 2.33214 4.35236 2.86257ZM4.41236 6.34257H0.412356V18.8626H4.41236V6.34257ZM10.7324 6.34257H6.75236V18.8626H10.6924V12.2926C10.6924 8.63257 15.4624 8.29257 15.4624 12.2926V18.8626H19.4124V10.9326C19.4124 4.76257 12.3524 4.99257 10.6924 8.02257L10.7324 6.34257Z" fill="black"/>
</svg>
