<svg width="22" height="18" viewBox="0 0 22 18" fill="none" xmlns="http://www.w3.org/2000/svg">
<path d="M21.1472 2.86255C20.3772 3.21255 19.5472 3.44255 18.6872 3.55255C19.5672 3.02255 20.2472 2.18255 20.5672 1.17255C19.7372 1.67255 18.8172 2.02255 17.8472 2.22255C17.0572 1.36255 15.9472 0.862549 14.6872 0.862549C12.3372 0.862549 10.4172 2.78255 10.4172 5.15255C10.4172 5.49255 10.4572 5.82255 10.5272 6.13255C6.96723 5.95255 3.79723 4.24255 1.68723 1.65255C1.31723 2.28255 1.10723 3.02255 1.10723 3.80255C1.10723 5.29255 1.85723 6.61255 3.01723 7.36255C2.30723 7.36255 1.64723 7.16255 1.06723 6.86255V6.89255C1.06723 8.97255 2.54723 10.7125 4.50723 11.1025C3.87796 11.2748 3.21733 11.2987 2.57723 11.1725C2.84884 12.025 3.38077 12.771 4.09825 13.3055C4.81573 13.84 5.68268 14.1362 6.57723 14.1525C5.06086 15.353 3.18123 16.0019 1.24723 15.9925C0.907234 15.9925 0.567234 15.9725 0.227234 15.9325C2.12723 17.1525 4.38723 17.8625 6.80723 17.8625C14.6872 17.8625 19.0172 11.3225 19.0172 5.65255C19.0172 5.46255 19.0172 5.28255 19.0072 5.09255C19.8472 4.49255 20.5672 3.73255 21.1472 2.86255Z" fill="black"/>
</svg>
